<?xml version="1.0" encoding="utf-8"?>
<!-- Generator: Adobe Illustrator 24.0.1, SVG Export Plug-In . SVG Version: 6.00 Build 0)  -->
<svg version="1.1" id="Camada_1" xmlns="http://www.w3.org/2000/svg" xmlns:xlink="http://www.w3.org/1999/xlink" x="0px" y="0px"
	 viewBox="0 0 300 300" style="enable-background:new 0 0 300 300;" xml:space="preserve">
<style type="text/css">
	.st0{fill:#12492F;}
	.st1{fill:#FFFFFF;}
</style>
<g>
	<g>
		<g>
			<path class="st0" d="M83.42,78.22c3.54,2.45,5.3,6.03,5.3,10.75c0,4.15-1.44,8.04-4.31,11.67c-2.88,3.63-6.74,6.77-11.6,9.4
				c-4.86,2.64-10.21,4.57-16.05,5.8l-1.56-3.82c5.09-2.36,9-5.18,11.74-8.48c2.73-3.3,4.1-6.98,4.1-11.03c0-2.92-0.83-5.25-2.47-7
				c-1.65-1.74-3.98-2.62-7-2.62c-4.24,0-7.83,1.2-10.75,3.61c-2.92,2.4-5.09,5.47-6.5,9.19c-1.41,3.73-2.12,7.57-2.12,11.52v42.71
				c0,2.74-0.4,5.07-1.2,7c-0.8,1.93-2.1,3.89-3.89,5.87l0.85,0.57c4.24-2.64,8.72-3.96,13.43-3.96c3.11,0,6.83,0.38,11.17,1.13
				c0.66,0.09,2,0.28,4.03,0.57c2.03,0.28,4.12,0.42,6.29,0.42c3.3,0,6.24-0.85,8.84-2.54c2.59-1.7,5.02-4.01,7.28-6.93l3.39,2.4
				l-11.45,24.75c-4.81-0.38-10.94-1.32-18.38-2.83c-4.53-0.85-8.48-1.51-11.88-1.98c-3.39-0.47-7.07-0.71-11.03-0.71
				c-6.32,0-12.07,1.79-17.25,5.37l-4.24-3.96c2.17-1.79,3.75-3.89,4.74-6.29c0.99-2.4,1.48-5.54,1.48-9.4v-38.32
				c0-8.67,1.91-16.54,5.73-23.62c3.82-7.07,9.19-12.66,16.12-16.76c6.93-4.1,14.87-6.15,23.83-6.15
				C75.43,74.55,79.89,75.77,83.42,78.22z"/>
			<path class="st0" d="M133.69,108.77c-6.22,4.43-11.1,9.45-14.64,15.06c-3.54,5.61-5.3,12.19-5.3,19.73c0,4.15,0.8,8.34,2.4,12.59
				c1.6,4.24,3.96,7.75,7.07,10.54c3.11,2.78,6.83,4.17,11.17,4.17c5.47,0,9.87-1.98,13.22-5.94c3.35-3.96,5.02-8.86,5.02-14.71
				c0-4.43-1.16-8.93-3.47-13.5c-2.31-4.57-5.4-8.44-9.26-11.6c-3.87-3.16-8.01-4.92-12.44-5.3c1.98-2.17,4.12-4.15,6.43-5.94
				c2.31-1.79,5.21-3.96,8.7-6.5c6.79,2.26,12.18,6.46,16.19,12.59c4.01,6.13,6.01,12.87,6.01,20.22c0,6.5-1.44,12.82-4.31,18.95
				c-2.88,6.13-7.02,11.1-12.44,14.92c-5.42,3.82-11.71,5.73-18.88,5.73c-5.94,0-11.38-1.39-16.33-4.17
				c-4.95-2.78-8.89-6.6-11.81-11.46c-2.92-4.85-4.38-10.2-4.38-16.05c0-10.09,3.18-18.95,9.55-26.59
				c6.36-7.64,14.64-12.96,24.82-15.98L133.69,108.77z"/>
			<path class="st0" d="M196.2,146.24h0.99c3.11-10.75,7.14-20.17,12.09-28.28c4.95-8.11,11.1-12.16,18.45-12.16
				c3.49,0,6.27,1.18,8.34,3.54c2.07,2.36,3.11,5.28,3.11,8.77c0,5.85-2.43,11.41-7.28,16.69c-4.86,5.28-10.44,9.81-16.76,13.58
				c0.85,1.23,1.7,2.31,2.54,3.25c3.86,5.28,7.33,9.5,10.39,12.66c3.06,3.16,5.96,4.74,8.7,4.74c3.49,0,6.46-1.46,8.91-4.38
				l2.55,2.83c-2.08,3.39-5,6.22-8.77,8.49c-3.77,2.26-7.73,3.39-11.88,3.39c-4.05,0-7.71-1.41-10.96-4.24s-6.91-6.79-10.96-11.88
				c-3.11-3.77-5.09-6.03-5.94-6.79l-1.27,0.71c-0.57,1.98-1.06,4.9-1.49,8.77c-0.42,3.87-0.68,7.21-0.78,10.04l-16.83,3.68V53.05
				l16.83-5.94V146.24z M207.65,131.46c-3.49,7.31-6.36,14.31-8.63,21c6.31-3.68,11.71-7.87,16.19-12.59
				c4.48-4.71,6.72-9.28,6.72-13.72c0-1.51-0.38-2.83-1.13-3.96c-0.76-1.13-1.79-1.7-3.11-1.7
				C214.48,120.5,211.14,124.16,207.65,131.46z"/>
			<path class="st0" d="M271.42,92.22l-8.91,2.83l-5.8-29.55l19.66-6.65L271.42,92.22z M275.95,164.77c0,1.41,0.33,2.54,0.99,3.39
				c0.66,0.85,1.55,1.27,2.69,1.27c2.36,0,4.76-1.65,7.21-4.95l2.54,2.69c-2.07,3.77-4.74,6.65-7.99,8.63
				c-3.25,1.98-6.48,2.97-9.69,2.97c-8.58,0-12.87-4.95-12.87-14.85v-50.91l17.11-5.94V164.77z"/>
		</g>
		<rect x="196.14" y="105" class="st1" width="7.86" height="43.24"/>
		<rect x="193" y="148" class="st0" width="16" height="5"/>
		<rect x="151" y="38" class="st1" width="129" height="67"/>
	</g>
</g>
</svg>
