<svg enable-background="new 0 0 170.8 32.4" viewBox="0 0 170.8 32.4" xmlns="http://www.w3.org/2000/svg" xmlns:xlink="http://www.w3.org/1999/xlink"><linearGradient id="a"><stop offset=".3139" stop-color="#fff" stop-opacity="0"/><stop offset="1" stop-color="#231f20"/></linearGradient><linearGradient id="b" gradientTransform="matrix(-.6712 -.7413 .7413 -.6712 201.324 13.7063)" gradientUnits="userSpaceOnUse" x1="114.0723" x2="126.7773" xlink:href="#a" y1="-125.464" y2="-125.464"/><linearGradient id="c" gradientTransform="matrix(-.6712 -.7413 .7413 -.6712 201.324 13.7063)" gradientUnits="userSpaceOnUse" x1="106.1815" x2="106.1815" xlink:href="#a" y1="-116.7346" y2="-98.0252"/><linearGradient id="d" gradientTransform="matrix(-.6712 -.7413 .7413 -.6712 201.324 13.7063)" gradientUnits="userSpaceOnUse" x1="107.7033" x2="98.2803" xlink:href="#a" y1="-131.527" y2="-131.527"/><linearGradient id="e" gradientTransform="matrix(.6712 .7413 -.7413 .6712 -1078.6866 -4811.6328)" gradientUnits="userSpaceOnUse" x1="4306.8315" x2="4295.8091" y1="2431.282" y2="2431.282"><stop offset=".3139" stop-color="#fff" stop-opacity="0"/><stop offset=".3801" stop-color="#c4c1c1" stop-opacity=".096434"/><stop offset=".4885" stop-color="#878181" stop-opacity=".2545"/><stop offset=".5969" stop-color="#5e5858" stop-opacity=".4125"/><stop offset=".7034" stop-color="#433e3e" stop-opacity=".5677"/><stop offset=".8074" stop-color="#312d2d" stop-opacity=".7192"/><stop offset=".9076" stop-color="#272323" stop-opacity=".8653"/><stop offset="1" stop-color="#231f20"/></linearGradient><linearGradient id="f" gradientTransform="matrix(-.6712 -.7413 .7413 -.6712 201.324 13.7063)" gradientUnits="userSpaceOnUse" x1="106.9641" x2="106.9641" xlink:href="#a" y1="-128.4695" y2="-134.7593"/><linearGradient id="g" gradientTransform="matrix(-.6712 -.7413 .7413 -.6712 201.324 13.7063)" gradientUnits="userSpaceOnUse" x1="106.9648" x2="106.9648" xlink:href="#a" y1="-111.9083" y2="-118.1973"/><linearGradient id="h" gradientTransform="matrix(1 .0025 -.0025 1 27.2051 71.4475)" gradientUnits="userSpaceOnUse" x1="8.2122" x2="11.3391" xlink:href="#a" y1="-51.7691" y2="-54.9411"/><linearGradient id="i" gradientTransform="matrix(1 .0025 -.0025 1 27.2051 71.4475)" gradientUnits="userSpaceOnUse" x1="1.5012" x2="5.5353" xlink:href="#a" y1="-56.5971" y2="-52.4271"/><linearGradient id="j" gradientTransform="matrix(1 .0025 -.0025 1 27.2051 71.4475)" gradientUnits="userSpaceOnUse" x1="10.4872" x2="8.1441" xlink:href="#a" y1="-46.6725" y2="-49.0156"/><linearGradient id="k" gradientTransform="matrix(1 .0025 -.0025 1 27.2051 71.4475)" gradientUnits="userSpaceOnUse" x1="-4.5026" x2="-.9104" xlink:href="#a" y1="-41.1089" y2="-44.1706"/><g fill="#244d6e"><path d="m78.8 9.9c-3 0-4.4 1.5-4.4 4.4v.8h3.2c.5 0 .9.2 1.2.5s.5.7.5 1.2-.2.9-.5 1.2-.7.5-1.2.5h-3.2v12c0 .2 0 .4-.1.6s-.2.4-.4.5c-.2.2-.3.3-.5.4s-.4.1-.7.1c-.2 0-.5 0-.7-.1s-.4-.2-.5-.4c-.2-.2-.3-.3-.4-.5 0-.1-.1-.3-.1-.6v-12h-.8c-.5 0-.9-.2-1.2-.5s-.5-.7-.5-1.2.2-.9.5-1.2.7-.5 1.2-.5h.8v-.8c0-5.2 2.6-7.8 7.8-7.8.5 0 .9.2 1.2.5s.5.7.5 1.2-.2.9-.5 1.2c-.4.3-.8.5-1.2.5z"/><path d="m96.3 30.5v-.3c-.8.6-1.7 1.1-2.6 1.5-.9.3-1.9.5-3 .5-2.5 0-4.6-.9-6.4-2.6-1.8-1.8-2.6-3.9-2.6-6.4s.9-4.6 2.6-6.4c1.8-1.8 3.9-2.6 6.4-2.6s4.6.9 6.4 2.6c1.8 1.8 2.6 3.9 2.6 6.4v7.3c0 .5-.2.9-.5 1.2s-.7.5-1.2.5-.9-.2-1.2-.5-.5-.7-.5-1.2zm-5.6-12.9c-.8 0-1.5.2-2.2.4-.7.3-1.3.7-1.8 1.2s-.9 1.1-1.2 1.8-.4 1.4-.4 2.2.1 1.5.4 2.2.7 1.3 1.2 1.8 1.1.9 1.8 1.2 1.4.4 2.2.4 1.5-.1 2.2-.4 1.3-.7 1.8-1.2.9-1.1 1.2-1.8.4-1.4.4-2.2-.1-1.5-.4-2.2-.7-1.3-1.2-1.8-1.1-.9-1.8-1.2-1.5-.4-2.2-.4z"/><path d="m115.9 27.1c.5 0 .9.2 1.2.5s.5.7.5 1.2-.2.9-.5 1.2c-1.7 1.5-3.6 2.2-5.9 2.2-2.5 0-4.6-.9-6.4-2.6-1.8-1.8-2.6-3.9-2.6-6.4s.9-4.6 2.6-6.4c1.8-1.8 3.9-2.6 6.4-2.6 2.3 0 4.2.7 5.9 2.2.4.3.6.8.6 1.3s-.2.9-.5 1.2-.7.5-1.2.5c-.4 0-.8-.1-1.1-.4-.5-.5-1.1-.8-1.7-1s-1.3-.4-2-.4c-.8 0-1.5.1-2.2.4s-1.3.7-1.8 1.2-.9 1.1-1.2 1.8-.4 1.4-.4 2.2.1 1.5.4 2.2.7 1.3 1.2 1.8 1.1.9 1.8 1.2 1.4.4 2.2.4c.7 0 1.4-.1 2-.3s1.2-.6 1.7-1c.3-.3.6-.4 1-.4z"/><path d="m124.8 11c0 .5-.2 1-.6 1.4s-.9.6-1.4.6-1-.2-1.4-.6-.6-.9-.6-1.4.2-1 .6-1.4.9-.6 1.4-.6 1 .2 1.4.6.6.9.6 1.4zm-3.7 19.5v-14.6c0-.5.2-.9.5-1.2s.7-.5 1.2-.5.9.2 1.2.5.5.7.5 1.2v14.6c0 .5-.2.9-.5 1.2s-.7.5-1.2.5-.9-.2-1.2-.5-.5-.7-.5-1.2z"/><path d="m127.8 30.5v-22.3c0-.5.2-.9.5-1.2s.7-.5 1.2-.5.9.2 1.2.5.5.7.5 1.2v20.7h.8c.5 0 .9.2 1.2.5s.5.7.5 1.2-.2.9-.5 1.2-.7.5-1.2.5h-2.5c-.5 0-.9-.2-1.2-.5-.4-.4-.5-.8-.5-1.3z"/><path d="m149.3 27.1c.5 0 .9.2 1.2.5s.5.7.5 1.2-.2.9-.5 1.2c-1.7 1.5-3.6 2.2-5.9 2.2-2.5 0-4.6-.9-6.4-2.6-1.8-1.8-2.6-3.9-2.6-6.4s.9-4.6 2.6-6.4c1.8-1.8 3.9-2.6 6.4-2.6s4.6.9 6.4 2.6c.9.9 1.5 1.8 2 2.9.4 1.1.7 2.2.7 3.5 0 .5-.2.9-.5 1.2s-.7.5-1.2.5h-12.7c.2.6.4 1.1.8 1.6s.8.9 1.2 1.3c.5.3 1 .6 1.6.8s1.2.3 1.8.3c.7 0 1.4-.1 1.9-.3.6-.2 1.1-.5 1.6-1 .3-.3.7-.4 1.1-.5zm.8-5.6c-.2-.6-.5-1.1-.8-1.6-.4-.5-.8-.9-1.3-1.3-.5-.3-1-.6-1.6-.8s-1.2-.3-1.8-.3-1.2.1-1.8.3-1.1.5-1.6.8-.9.8-1.3 1.3-.6 1-.8 1.6z"/><path d="m159.5 23.6c-1-.4-1.7-.8-2.1-1.2-.8-.8-1.2-1.8-1.2-2.9 0-.8.2-1.6.7-2.2.4-.7 1-1.2 1.7-1.7s1.5-.8 2.4-1.1 1.7-.4 2.6-.4c2.7 0 5 1.1 6.9 3.2.2.3.3.6.3 1 0 .5-.2.9-.5 1.2s-.7.5-1.2.5c-.3 0-.6-.1-.9-.3-.2-.2-.5-.4-.7-.6-1.1-1.1-2.4-1.6-4-1.6-1.5 0-2.8.5-3.7 1.4-.2.2-.3.4-.3.7s.1.5.4.6l7.5 2.5c1 .4 1.8.8 2.1 1.2.8.8 1.2 1.8 1.2 2.9 0 .8-.2 1.6-.7 2.2-.4.7-1 1.2-1.7 1.7s-1.5.8-2.3 1.1c-.9.2-1.7.4-2.6.4-2.7 0-5-1.1-6.9-3.2-.2-.3-.4-.7-.4-1 0-.5.2-.9.5-1.2s.7-.5 1.2-.5c.4 0 .7.1.9.3s.5.4.7.6c1.1 1.1 2.4 1.6 4 1.6 1.5 0 2.8-.5 3.7-1.4.2-.2.2-.4.2-.7s-.1-.5-.4-.6z"/></g><path d="m20.7 6.7c0 .5 0 .9.1 1.3s.2.7.3 1.1c.3.7.7 1.4 1.3 2.1l.4.4 1.5 1.7.8.9.4.4 6.2 6.8 1.5 1.6.8.9.3.3c.5.7.8 1.4.9 2.2v.2.2c.3 2-.3 4-1.8 5.5 1.6.1 3.3-.5 4.6-1.7 1.4-1.2 2.1-2.9 2.1-4.6 0-.5 0-.9-.1-1.3s-.2-.7-.3-1.1c-.3-.7-.7-1.4-1.3-2.1l-.4-.4-1.1-1.3-.8-.9-.4-.4-6.2-6.8-1.5-1.6-.8-.9-.6-.7c-.5-.7-.8-1.4-.9-2.2 0-.1 0-.1 0-.2s0-.1 0-.2c-.3-2 .3-4 1.8-5.5-1.6-.1-3.3.5-4.6 1.7-1.5 1.2-2.2 2.9-2.2 4.6z" fill="#2794d2"/><path d="m20.7 6.1v.6c0 .5 0 .9.1 1.3s.2.7.3 1.1c.3.7.7 1.4 1.3 2.1l.4.4 1.5 1.7.7.7.4.4 1.2 1.3 3.7-3.3-.6-.7-1.5-1.6-.8-.9-.6-.7c-.5-.7-.8-1.4-.9-2.2 0-.1 0-.1 0-.2s0-.1 0-.2c0-.3-.1-.6-.1-1 0-1.7.6-3.3 1.9-4.6-1.6-.1-3.3.5-4.6 1.7-1.5 1.1-2.2 2.6-2.4 4.1z" fill="url(#b)" opacity=".5"/><path d="m0 7.7c0 .4 0 .9.1 1.3s.2.7.3 1.1c.3.7.7 1.4 1.3 2.1l.3.3 1.5 1.7.8.9.4.4.6.7.7.7.8.9 1.5 1.6 3 3.4 1.5 1.6.8.9.6.7.6.7.4.4.8.9 1.5 1.7.4.4.6.6.2.2h.1c.1 0 .1.1.2.1h.1c.1 0 .1.1.2.1h.1c.1 0 .1.1.2.1h.1c.1 0 .1.1.2.1h.1c.1 0 .1.1.2.1h.1c.1 0 .2.1.3.1h.1.2.1c.1 0 .1 0 .2.1h.1.2.1.2.1.2.1.2.2.1.2.1.2.1.2.1.2.1.2.1c.1 0 .2-.1.3-.1h.1c.1 0 .1 0 .2-.1h.1c.1 0 .1-.1.2-.1h.1c.1 0 .1-.1.2-.1h.1c.1 0 .1-.1.2-.1h.1c.1 0 .1-.1.2-.1h.1c.1 0 .1-.1.2-.1.2-.2.5-.3.7-.6l.4-.4 1.7-1.5.9-.8.4-.4 6.6-6 3-2.8 9.6-8.7.8-.7c.1 0 .1-.1.2-.1l2.4-1.9.6-.5.1-.1.4-.4c.7-.5 1.5-.9 2.4-1h.2.2c.3 0 .6-.1.8-.1.2-1.7-.2-3.4-1.4-4.8-.1 0-.1 0-.2 0-.5 0-.9 0-1.3.1s-.7.2-1.1.3c-.7.3-1.4.7-2.1 1.3l-.4.2-.7.6-.8.7c-.1 0-.1.1-.2.1l-3 2.7-.1.1-9.7 8.8-3 2.8-8.1 7.3-.8.9-.2.2s0 0-.1.1-.2.2-.4.2c-.9.5-2.1.5-2.9-.1-.1-.1-.3-.2-.4-.3l-.2-.3-.8-.8-1.9-2.1-2.7-3-.1-.1-3.3-3.8-.1-.1-2.7-3-2-2.1-1-1.1c-.5-.8-.8-1.6-1-2.4 0-.1 0-.1 0-.2s0-.1 0-.2c-.3-2 .3-4 1.8-5.5-1.7-.1-3.4.5-4.7 1.6-1.3 1.3-2.1 3-2.1 4.7z" fill="#2794d2"/><path d="m48.5 9 .8.9.2.2.1.1.1-.1.8-.7c.1 0 .1-.1.2-.1l2.3-2.3.6-.5.1-.1.4-.4c.7-.5 1.5-.9 2.4-1h.2.2c.3 0 .6-.1.8-.1.2-1.7-.2-3.4-1.4-4.8-.1 0-.1 0-.2 0-.5 0-.9 0-1.3.1s-.7.2-1.1.3c-.7.3-1.4.7-2.1 1.3l-.4.2-.7.6-.8.7c-.1 0-.1.1-.2.1l-3 2.7-.1.1-.3.2.9.9z" fill="url(#c)" opacity=".5"/><path d="m31.6 21.4 1.5 1.6.8.9.3.3c.5.7.8 1.4.9 2.2v.2.2c0 .3.1.6.1.9 0 1.7-.6 3.4-1.9 4.6 1.6.1 3.3-.5 4.6-1.6 1.4-1.2 2.1-2.9 2.1-4.6 0-.5 0-.9-.1-1.3s-.2-.7-.3-1.1c-.3-.7-.7-1.4-1.3-2.1l-.4-.4-1.1-1.3-.8-.9-.4-.4-2.1-2.3-3.5 3.3z" fill="url(#d)" opacity=".5"/><path d="m8.9 12.8-1.5-1.6-.8-.9-.6-.8c-.5-.7-.8-1.4-1-2.2 0-.1 0-.1 0-.2s0-.1 0-.2c0-.3-.1-.6-.1-.9 0-1.7.6-3.4 1.9-4.6-1.7-.1-3.4.5-4.7 1.6-1.3 1.3-2.1 3-2.1 4.7 0 .4 0 .9.1 1.3s.2.7.3 1.1c.3.7.7 1.4 1.3 2.1l.3.3 1.5 1.7.8.9.4.4 2.1 2.3 3.7-3.3z" fill="url(#e)" opacity=".5"/><path d="m0 7.4c1.6-1.3 3.8-1.7 5.7-1.2.1 0 .1 0 .2.1.1 0 .1 0 .2.1.8.2 1.6.6 2.2 1.2l1 1.1 7.3 8.1s0 0 .1.1l.6.7.8.9 1.5 1.6 6.6 7.3.4.4.8.9 1.1 1.3.4.4c.6.6 1.2 1.1 1.9 1.5.3.2.7.3 1 .4.4.1.9.2 1.3.2 1.7.1 3.5-.4 4.8-1.6s2-2.8 2.1-4.4c-1.6 1.3-3.8 1.7-5.7 1.2-.1 0-.1 0-.2-.1-.1 0-.1 0-.2-.1-.8-.3-1.6-.7-2.2-1.3l-.6-.7-7.3-8.1s0 0-.1-.1l-.6-.7-.8-.9-1.5-1.6-6.6-7.3-.4-.4-.8-.9-1.5-1.7-.4-.4c-.4-.6-1.1-1-1.8-1.4-.3-.2-.7-.3-1-.4-.5-.1-.9-.2-1.4-.2-1.7-.2-3.4.4-4.8 1.6-1.3 1.2-2 2.8-2.1 4.4z" fill="#22af58"/><path d="m20.7 6.4c1.6-1.3 3.8-1.7 5.7-1.2.1 0 .1 0 .2.1.1 0 .1 0 .2.1.8.3 1.5.7 2.2 1.2l.6.6.7.8 1.5 1.6 4.9 5.4 1.3 1.4.4.4.8.9.9.9.6.7.4.4c.2.2.4.4.6.6l.2.2h.1c.1 0 .1.1.2.1h.1c.1 0 .1.1.2.1h.1c.1 0 .1.1.2.1h.1c.1 0 .1.1.2.1h.1c.1 0 .1.1.2.1h.1c.1 0 .2.1.3.1h.1.2.1c.1 0 .1 0 .2.1h.1.2.1.2.1.2.1.2.2.1.2.1.2.1.2.1.2.1.2.1c.2-.1.4-.1.6-.2h.1c.1 0 .1-.1.2-.1h.1c.1 0 .1-.1.2-.1h.1c.1 0 .1-.1.2-.1h.1c.1 0 .1-.1.2-.1.1 0 .1-.1.2-.1.2-.2.5-.4.7-.6l.4-.4 1.7-1.5.9-.8.4-.4 1.1-1 1.2-1.1.4-.4.3-.3.3-.2.3-.3.1-.1.2-.1.4-.4.3-.3.9-.9.7-.6.4-.4c.6-.6 1.1-1.2 1.5-1.9.2-.3.3-.7.4-1 .1-.4.2-.9.2-1.3 0-.1 0-.1 0-.2.1-1.6-.5-3.3-1.6-4.6-1.2-1.3-2.8-2-4.4-2.1 1.1 1.4 1.6 3.2 1.4 4.8 0 .3-.1.6-.2.8 0 .1 0 .1-.1.2 0 .1 0 .1-.1.2-.3.8-.7 1.6-1.3 2.2l-.5.4-3 2.7-1 .9-.1.1-2.7 2.5-.6 1.2-.3.4c-.2.1-.4.3-.6.4-.8.4-1.8.3-2.6-.1-.2-.1-.3-.3-.5-.4l-.3-.3-.1-.1-.2-.2-.8-.9-1.5-1.6-.7-.8-5.4-6-.4-.4-.8-.9-1.5-1.7-.4-.4c-.6-.8-1.2-1.3-1.9-1.6-.3-.2-.7-.3-1-.4-.4-.1-.9-.2-1.3-.2-1.7-.1-3.5.4-4.8 1.6-1.4 1.2-2.1 2.8-2.2 4.4z" fill="#22af58"/><path d="m28.5 22.6 3.4-3.1 3.3 3.6-3.4 3.1z" fill="url(#f)" opacity=".7"/><path d="m40.4 11.8 3.4-3.1 3.3 3.7-3.4 3z" fill="url(#g)" opacity=".5"/><path d="m36.7 15.1 3.3 3.7-2.2 2-3.3-3.6z" fill="url(#h)" opacity=".7"/><path d="m30.8 20.5 3.7-3.3-2.6-2.8-3.8 3.2z" fill="url(#i)" opacity=".5"/><path d="m34.1 24.2 3.7-3.3 1.3 1.6-4.2 3.4c-.1-1-.8-1.7-.8-1.7z" fill="url(#j)" opacity=".5"/><path d="m24.9 25.9 3.3 3.6c-1.9 1.6-2 1.8-2.6 2-1.3.5-3-4.8-3-4.8s1.2.3 2.3-.8z" fill="url(#k)" opacity=".5"/></svg>