<?xml version="1.0" encoding="utf-8"?>
<!-- Generator: Adobe Illustrator 16.0.0, SVG Export Plug-In . SVG Version: 6.00 Build 0)  -->
<!DOCTYPE svg PUBLIC "-//W3C//DTD SVG 1.1//EN" "http://www.w3.org/Graphics/SVG/1.1/DTD/svg11.dtd">
<svg version="1.1" id="Camada_1" xmlns="http://www.w3.org/2000/svg" xmlns:xlink="http://www.w3.org/1999/xlink" x="0px" y="0px"
	 width="800px" height="771.243px" viewBox="0 0 800 771.243" enable-background="new 0 0 800 771.243" xml:space="preserve">
<g>
	<path fill="#FB9224" d="M461.659,99.287c0,7.094-27.712,12.843-61.897,12.843s-61.897-5.749-61.897-12.843
		s37.925-16.012,63.885-16.166C431.152,82.946,461.659,92.192,461.659,99.287z"/>
	<rect x="337.259" y="100.546" fill="#FB9224" width="121.511" height="148.817"/>
	<path fill="#FB9224" d="M322.064,131.169c-6.711,6.425-20.537,3.021-30.881-7.602c-10.344-10.63-13.288-24.454-6.576-30.881
		c6.712-6.424,20.538-3.022,30.881,7.603C325.833,110.917,328.776,124.741,322.064,131.169z"/>
	<path fill="#FB9224" d="M517.659,94c-6.778-7.534-21.232-5.619-32.286,4.28c-11.055,9.905-14.519,24.04-7.74,31.578
		c6.779,7.535,21.233,5.621,32.286-4.279C520.975,115.674,524.437,101.539,517.659,94z"/>
	<g>
		<path fill="#2B205D" d="M506.912,138.577c0,0,14.554-19.986,16.79-36.644c2.24-16.655-2.577-36.847-2.577-36.847
			s-51.156,36.292-61.794,27.964c-10.632-8.328-59.33-15.546-59.33-15.546s-48.699,7.218-59.334,15.546
			c-10.635,8.327-59.66-27.964-59.66-27.964s-6.949,20.191-4.711,36.847c2.239,16.657,16.793,36.644,16.793,36.644
			s-48.317,53.907-32.355,104.376c23.884,75.506,91.688,63.847,139.267,137.134c47.578-73.288,115.379-61.628,139.266-137.134
			C555.227,192.483,506.912,138.577,506.912,138.577z M304.747,125.669c-1.077,2.498,8.633,11.658-8.16,1.665
			c-16.793-9.993-10.075-39.975-7.137-32.479s34.425,16.241,34.425,16.241C323.455,116.507,305.823,123.169,304.747,125.669z
			 M360.683,89.442c5.576-1.256,39.045-6.362,39.318-6.322c0.27-0.041,33.74,5.065,39.316,6.322
			c6.156,1.387,12.034,11.66,4.757,11.936c-7.276,0.277-28.547,4.164-28.547,4.164s-8.396-7.217-8.396-8.604
			c0-1.389,8.396-7.495,8.396-7.495l-6.996-0.833l-8.53,8.46l-8.531-8.46l-6.997,0.833c0,0,8.395,6.106,8.395,7.495
			c0,1.387-8.395,8.604-8.395,8.604s-21.271-3.887-28.547-4.164C348.649,101.102,354.526,90.829,360.683,89.442z M437.43,212.417
			c-0.012,0.049-0.039,0.102-0.049,0.15c-8.734-4.987-28.84-16.232-35.703-20.069v-49.041c2.708-1.103,5.392-4.5,6.918-7.174
			c0.857-1.504,0.561-8.811,0.561-8.811s7.041,1.006,3.786,6.211c1.153,0.52,5.248-3.158,5.248-3.158s0.28-6.663,0-8.051
			c-0.28-1.387-9.796-7.494-9.796-7.494s-4.582-3.333-8.394-3.333c-3.814,0-8.397,3.333-8.397,3.333s-9.513,6.107-9.793,7.494
			c-0.28,1.389,0,8.051,0,8.051s4.091,3.678,5.247,3.158c-3.252-5.206,3.786-6.211,3.786-6.211s-0.298,7.307,0.563,8.811
			c1.526,2.674,4.21,6.069,6.915,7.172v49.042c-6.864,3.837-26.967,15.083-35.702,20.069c-0.013-0.049-0.039-0.102-0.049-0.15
			c-1.399-7.495,13.992-91.607,15.112-93.827c1.12-2.222,17.634-18.044,17.634-18.044h4.685h4.686c0,0,16.51,15.822,17.63,18.044
			C423.436,120.811,438.83,204.922,437.43,212.417z M349.413,107.764c0,0,10.355-1.389,15.253-0.833
			c4.898,0.556,12.035,4.857,12.035,4.857s-12.175,7.357-17.912,7.773C353.051,119.978,349.413,107.764,349.413,107.764z
			 M400.001,232.682c0,0-27.827-9.863-35.516-17.341c7.393-4.208,23.481-13.231,35.516-19.958
			c12.033,6.727,28.12,15.75,35.513,19.958C427.824,222.818,400.001,232.682,400.001,232.682z M441.209,119.561
			c-5.737-0.417-17.91-7.773-17.91-7.773s7.137-4.301,12.034-4.857c4.897-0.555,15.253,0.833,15.253,0.833
			S446.95,119.978,441.209,119.561z M495.256,125.669c-1.081-2.5-18.712-9.162-19.131-14.574c0,0,31.487-8.746,34.425-16.241
			c2.939-7.495,9.655,22.486-7.137,32.479C486.618,137.327,496.33,128.167,495.256,125.669z"/>
	</g>
</g>
<g>
	<path fill="#2B205D" d="M177.823,518.581c0,18.611-4.614,32.915-13.843,42.913c-9.229,9.997-22.456,14.996-39.683,14.996
		s-30.454-4.999-39.683-14.996c-9.229-9.998-13.843-24.353-13.843-43.066c0-18.713,4.626-33.004,13.881-42.875
		c9.254-9.868,22.52-14.804,39.798-14.804c17.277,0,30.492,4.974,39.644,14.92C173.248,485.615,177.823,499.92,177.823,518.581z
		 M95.767,518.581c0,12.563,2.384,22.021,7.152,28.378c4.768,6.357,11.894,9.536,21.379,9.536c19.021,0,28.532-12.638,28.532-37.914
		c0-25.327-9.459-37.99-28.377-37.99c-9.486,0-16.638,3.191-21.457,9.574C98.176,496.549,95.767,506.021,95.767,518.581z"/>
	<path fill="#2B205D" d="M201.126,462.518h34.99c15.945,0,27.52,2.27,34.723,6.807s10.805,11.754,10.805,21.648
		c0,6.717-1.576,12.228-4.729,16.534c-3.154,4.307-7.344,6.896-12.574,7.768v0.77c7.125,1.589,12.266,4.563,15.42,8.92
		c3.152,4.358,4.729,10.152,4.729,17.381c0,10.255-3.705,18.253-11.111,23.994c-7.41,5.742-17.471,8.613-30.186,8.613h-42.066
		V462.518z M224.966,507.046h13.844c6.459,0,11.137-1,14.033-3c2.896-1.999,4.346-5.306,4.346-9.92c0-4.307-1.576-7.396-4.729-9.267
		c-3.154-1.871-8.141-2.808-14.959-2.808h-12.535V507.046z M224.966,525.964v29.301h15.535c6.563,0,11.406-1.256,14.535-3.769
		c3.125-2.511,4.691-6.356,4.691-11.535c0-9.331-6.666-13.997-19.996-13.997H224.966z"/>
	<path fill="#2B205D" d="M371.7,574.952h-64.754V462.518H371.7v19.534h-40.914v24.687h38.068v19.533h-38.068v28.993H371.7V574.952z"
		/>
	<path fill="#2B205D" d="M418.995,531.809v43.144h-23.84V462.518h32.762c15.277,0,26.582,2.782,33.914,8.345
		c7.331,5.563,10.998,14.01,10.998,25.34c0,6.613-1.821,12.497-5.461,17.649c-3.641,5.152-8.793,9.19-15.457,12.112
		c16.918,25.276,27.941,41.605,33.068,48.988h-26.455l-26.84-43.144H418.995z M418.995,512.429h7.691
		c7.536,0,13.099-1.256,16.688-3.768c3.588-2.512,5.384-6.461,5.384-11.844c0-5.331-1.834-9.125-5.499-11.382
		c-3.666-2.256-9.344-3.384-17.034-3.384h-7.229V512.429z"/>
	<path fill="#2B205D" d="M601.182,518.581c0,18.611-4.614,32.915-13.843,42.913c-9.229,9.997-22.456,14.996-39.683,14.996
		s-30.454-4.999-39.683-14.996c-9.229-9.998-13.843-24.353-13.843-43.066c0-18.713,4.627-33.004,13.882-42.875
		c9.253-9.868,22.52-14.804,39.798-14.804c17.276,0,30.492,4.974,39.644,14.92C596.606,485.615,601.182,499.92,601.182,518.581z
		 M519.125,518.581c0,12.563,2.384,22.021,7.152,28.378c4.768,6.357,11.894,9.536,21.379,9.536
		c19.021,0,28.532-12.638,28.532-37.914c0-25.327-9.46-37.99-28.378-37.99c-9.486,0-16.638,3.191-21.456,9.574
		C521.534,496.549,519.125,506.021,519.125,518.581z"/>
	<path fill="#2B205D" d="M724.229,574.952h-30.301l-48.911-85.056h-0.691c0.973,15.022,1.461,25.737,1.461,32.146v52.91h-21.303
		V462.518h30.069l48.835,84.211h0.538c-0.77-14.612-1.153-24.942-1.153-30.993v-53.218h21.456V574.952z"/>
</g>
<g>
	<path fill="#2B205D" d="M244.638,630.55c-7.885,0-14.108,2.626-18.672,7.876c-4.563,5.251-6.845,12.44-6.845,21.567
		c0,9.39,2.2,16.645,6.6,21.764c4.399,5.12,10.673,7.68,18.819,7.68c5.006,0,10.714-0.899,17.126-2.698v7.312
		c-4.973,1.864-11.107,2.797-18.402,2.797c-10.568,0-18.721-3.206-24.463-9.618c-5.741-6.411-8.612-15.522-8.612-27.333
		c0-7.394,1.382-13.871,4.147-19.433c2.764-5.562,6.755-9.847,11.974-12.857c5.218-3.009,11.36-4.515,18.426-4.515
		c7.524,0,14.1,1.374,19.728,4.122l-3.533,7.165C255.499,631.826,250.068,630.55,244.638,630.55z"/>
	<path fill="#2B205D" d="M339.593,659.896c0,11.482-2.904,20.512-8.71,27.088c-5.807,6.575-13.88,9.863-24.217,9.863
		c-10.568,0-18.721-3.23-24.463-9.691c-5.741-6.461-8.612-15.581-8.612-27.358c0-11.679,2.878-20.732,8.637-27.161
		c5.758-6.429,13.937-9.643,24.536-9.643c10.306,0,18.354,3.271,24.144,9.814C336.698,639.351,339.593,648.38,339.593,659.896z
		 M282.423,659.896c0,9.716,2.069,17.085,6.208,22.106c4.138,5.022,10.149,7.533,18.034,7.533c7.949,0,13.952-2.503,18.009-7.508
		c4.056-5.006,6.085-12.383,6.085-22.132c0-9.65-2.021-16.971-6.061-21.96c-4.041-4.988-10.019-7.483-17.936-7.483
		c-7.949,0-13.994,2.511-18.132,7.532C284.492,643.007,282.423,650.311,282.423,659.896z"/>
	<path fill="#2B205D" d="M412.857,659.307c0,11.843-3.214,20.896-9.643,27.161c-6.428,6.266-15.678,9.397-27.75,9.397H355.59
		v-71.744h21.984c11.156,0,19.825,3.092,26.009,9.275C409.766,639.579,412.857,648.216,412.857,659.307z M404.025,659.601
		c0-9.355-2.348-16.406-7.042-21.149s-11.671-7.116-20.929-7.116h-12.121v57.316h10.158c9.945,0,17.42-2.445,22.426-7.336
		C401.521,676.425,404.025,669.187,404.025,659.601z"/>
	<path fill="#2B205D" d="M428.855,695.865v-71.744h8.342v71.744H428.855z"/>
	<path fill="#2B205D" d="M512.916,695.865h-9.52l-39.209-60.212h-0.393c0.523,7.066,0.785,13.544,0.785,19.433v40.779h-7.705
		v-71.744h9.422l39.111,59.967h0.393c-0.066-0.883-0.213-3.721-0.441-8.514c-0.23-4.793-0.313-8.22-0.246-10.281v-41.172h7.803
		V695.865z"/>
	<path fill="#2B205D" d="M564.197,658.275h24.389v34.891c-3.795,1.211-7.656,2.127-11.582,2.748s-8.473,0.933-13.641,0.933
		c-10.863,0-19.318-3.23-25.371-9.691s-9.078-15.515-9.078-27.162c0-7.459,1.496-13.993,4.49-19.604
		c2.992-5.61,7.303-9.896,12.93-12.856s12.219-4.441,19.777-4.441c7.654,0,14.785,1.407,21.395,4.221l-3.238,7.36
		c-6.479-2.748-12.711-4.122-18.697-4.122c-8.734,0-15.555,2.601-20.463,7.803c-4.906,5.202-7.361,12.415-7.361,21.641
		c0,9.685,2.363,17.028,7.092,22.034c4.727,5.005,11.67,7.508,20.83,7.508c4.973,0,9.832-0.572,14.576-1.718v-22.083h-16.047
		V658.275z"/>
</g>
</svg>
