<svg xmlns="http://www.w3.org/2000/svg" width="800" height="771.243" viewBox="0 0 800 771.243"><path fill="#FB9224" d="M461.659 99.287c0 7.094-27.712 12.843-61.897 12.843s-61.897-5.749-61.897-12.843 37.925-16.012 63.885-16.166c29.402-.175 59.909 9.071 59.909 16.166z"/><path fill="#FB9224" d="M337.259 100.546H458.77v148.817H337.259zm-15.195 30.623c-6.711 6.425-20.537 3.021-30.881-7.602-10.344-10.63-13.288-24.454-6.576-30.881 6.712-6.424 20.538-3.022 30.881 7.603 10.345 10.628 13.288 24.452 6.576 30.88zM517.659 94c-6.778-7.534-21.232-5.619-32.286 4.28-11.055 9.905-14.519 24.04-7.74 31.578 6.779 7.535 21.233 5.621 32.286-4.279 11.056-9.905 14.518-24.04 7.74-31.579z"/><path fill="#2B205D" d="M506.912 138.577s14.554-19.986 16.79-36.644c2.24-16.655-2.577-36.847-2.577-36.847s-51.156 36.292-61.794 27.964c-10.632-8.328-59.33-15.546-59.33-15.546s-48.699 7.218-59.334 15.546c-10.635 8.327-59.66-27.964-59.66-27.964s-6.949 20.191-4.711 36.847c2.239 16.657 16.793 36.644 16.793 36.644s-48.317 53.907-32.355 104.376c23.884 75.506 91.688 63.847 139.267 137.134 47.578-73.288 115.379-61.628 139.266-137.134 15.96-50.47-32.355-104.376-32.355-104.376zm-202.165-12.908c-1.077 2.498 8.633 11.658-8.16 1.665-16.793-9.993-10.075-39.975-7.137-32.479s34.425 16.241 34.425 16.241c-.42 5.411-18.052 12.073-19.128 14.573zm55.936-36.227c5.576-1.256 39.045-6.362 39.318-6.322.27-.041 33.74 5.065 39.316 6.322 6.156 1.387 12.034 11.66 4.757 11.936-7.276.277-28.547 4.164-28.547 4.164s-8.396-7.217-8.396-8.604c0-1.389 8.396-7.495 8.396-7.495l-6.996-.833-8.53 8.46-8.531-8.46-6.997.833s8.395 6.106 8.395 7.495c0 1.387-8.395 8.604-8.395 8.604s-21.271-3.887-28.547-4.164c-7.277-.276-1.4-10.549 4.757-11.936zm76.747 122.975c-.012.049-.039.102-.049.15-8.734-4.987-28.84-16.232-35.703-20.069v-49.041c2.708-1.103 5.392-4.5 6.918-7.174.857-1.504.561-8.811.561-8.811s7.041 1.006 3.786 6.211c1.153.52 5.248-3.158 5.248-3.158s.28-6.663 0-8.051c-.28-1.387-9.796-7.494-9.796-7.494s-4.582-3.333-8.394-3.333c-3.814 0-8.397 3.333-8.397 3.333s-9.513 6.107-9.793 7.494c-.28 1.389 0 8.051 0 8.051s4.091 3.678 5.247 3.158c-3.252-5.206 3.786-6.211 3.786-6.211s-.298 7.307.563 8.811c1.526 2.674 4.21 6.069 6.915 7.172v49.042c-6.864 3.837-26.967 15.083-35.702 20.069-.013-.049-.039-.102-.049-.15-1.399-7.495 13.992-91.607 15.112-93.827 1.12-2.222 17.634-18.044 17.634-18.044h9.371s16.51 15.822 17.63 18.044c1.118 2.222 16.512 86.333 15.112 93.828zm-88.017-104.653s10.355-1.389 15.253-.833 12.035 4.857 12.035 4.857-12.175 7.357-17.912 7.773c-5.738.417-9.376-11.797-9.376-11.797zm50.588 124.918s-27.827-9.863-35.516-17.341c7.393-4.208 23.481-13.231 35.516-19.958 12.033 6.727 28.12 15.75 35.513 19.958-7.69 7.477-35.513 17.341-35.513 17.341zm41.208-113.121c-5.737-.417-17.91-7.773-17.91-7.773s7.137-4.301 12.034-4.857c4.897-.555 15.253.833 15.253.833s-3.636 12.214-9.377 11.797zm54.047 6.108c-1.081-2.5-18.712-9.162-19.131-14.574 0 0 31.487-8.746 34.425-16.241 2.939-7.495 9.655 22.486-7.137 32.479-16.795 9.994-7.083.834-8.157-1.664zM177.823 518.581c0 18.611-4.614 32.915-13.843 42.913-9.229 9.997-22.456 14.996-39.683 14.996s-30.454-4.999-39.683-14.996c-9.229-9.998-13.843-24.353-13.843-43.066s4.626-33.004 13.881-42.875c9.254-9.868 22.52-14.804 39.798-14.804 17.277 0 30.492 4.974 39.644 14.92 9.154 9.946 13.729 24.251 13.729 42.912zm-82.056 0c0 12.563 2.384 22.021 7.152 28.378 4.768 6.357 11.894 9.536 21.379 9.536 19.021 0 28.532-12.638 28.532-37.914 0-25.327-9.459-37.99-28.377-37.99-9.486 0-16.638 3.191-21.457 9.574-4.82 6.384-7.229 15.856-7.229 28.416zm105.359-56.063h34.99c15.945 0 27.52 2.27 34.723 6.807s10.805 11.754 10.805 21.648c0 6.717-1.576 12.228-4.729 16.534-3.154 4.307-7.344 6.896-12.574 7.768v.77c7.125 1.589 12.266 4.563 15.42 8.92 3.152 4.358 4.729 10.152 4.729 17.381 0 10.255-3.705 18.253-11.111 23.994-7.41 5.742-17.471 8.613-30.186 8.613h-42.066V462.518zm23.84 44.528h13.844c6.459 0 11.137-1 14.033-3 2.896-1.999 4.346-5.306 4.346-9.92 0-4.307-1.576-7.396-4.729-9.267-3.154-1.871-8.141-2.808-14.959-2.808h-12.535v24.995zm0 18.918v29.301h15.535c6.563 0 11.406-1.256 14.535-3.769 3.125-2.511 4.691-6.356 4.691-11.535 0-9.331-6.666-13.997-19.996-13.997h-14.765zM371.7 574.952h-64.754V462.518H371.7v19.534h-40.914v24.687h38.068v19.533h-38.068v28.993H371.7v19.687zm47.295-43.143v43.144h-23.84V462.518h32.762c15.277 0 26.582 2.782 33.914 8.345 7.331 5.563 10.998 14.01 10.998 25.34 0 6.613-1.821 12.497-5.461 17.649-3.641 5.152-8.793 9.19-15.457 12.112 16.918 25.276 27.941 41.605 33.068 48.988h-26.455l-26.84-43.144h-12.689zm0-19.38h7.691c7.536 0 13.099-1.256 16.688-3.768 3.588-2.512 5.384-6.461 5.384-11.844 0-5.331-1.834-9.125-5.499-11.382-3.666-2.256-9.344-3.384-17.034-3.384h-7.229v30.378zm182.187 6.152c0 18.611-4.614 32.915-13.843 42.913-9.229 9.997-22.456 14.996-39.683 14.996s-30.454-4.999-39.683-14.996c-9.229-9.998-13.843-24.353-13.843-43.066s4.627-33.004 13.882-42.875c9.253-9.868 22.52-14.804 39.798-14.804 17.276 0 30.492 4.974 39.644 14.92 9.152 9.946 13.728 24.251 13.728 42.912zm-82.057 0c0 12.563 2.384 22.021 7.152 28.378 4.768 6.357 11.894 9.536 21.379 9.536 19.021 0 28.532-12.638 28.532-37.914 0-25.327-9.46-37.99-28.378-37.99-9.486 0-16.638 3.191-21.456 9.574-4.82 6.384-7.229 15.856-7.229 28.416zm205.104 56.371h-30.301l-48.911-85.056h-.691c.973 15.022 1.461 25.737 1.461 32.146v52.91h-21.303V462.518h30.069l48.835 84.211h.538c-.77-14.612-1.153-24.942-1.153-30.993v-53.218h21.456v112.434zM244.638 630.55c-7.885 0-14.108 2.626-18.672 7.876-4.563 5.251-6.845 12.44-6.845 21.567 0 9.39 2.2 16.645 6.6 21.764 4.399 5.12 10.673 7.68 18.819 7.68 5.006 0 10.714-.899 17.126-2.698v7.312c-4.973 1.864-11.107 2.797-18.402 2.797-10.568 0-18.721-3.206-24.463-9.618-5.741-6.411-8.612-15.522-8.612-27.333 0-7.394 1.382-13.871 4.147-19.433 2.764-5.562 6.755-9.847 11.974-12.857 5.218-3.009 11.36-4.515 18.426-4.515 7.524 0 14.1 1.374 19.728 4.122l-3.533 7.165c-5.432-2.553-10.863-3.829-16.293-3.829zm94.955 29.346c0 11.482-2.904 20.512-8.71 27.088-5.807 6.575-13.88 9.863-24.217 9.863-10.568 0-18.721-3.23-24.463-9.691-5.741-6.461-8.612-15.581-8.612-27.358 0-11.679 2.878-20.732 8.637-27.161 5.758-6.429 13.937-9.643 24.536-9.643 10.306 0 18.354 3.271 24.144 9.814 5.79 6.543 8.685 15.572 8.685 27.088zm-57.17 0c0 9.716 2.069 17.085 6.208 22.106 4.138 5.022 10.149 7.533 18.034 7.533 7.949 0 13.952-2.503 18.009-7.508 4.056-5.006 6.085-12.383 6.085-22.132 0-9.65-2.021-16.971-6.061-21.96-4.041-4.988-10.019-7.483-17.936-7.483-7.949 0-13.994 2.511-18.132 7.532-4.138 5.023-6.207 12.327-6.207 21.912zm130.434-.589c0 11.843-3.214 20.896-9.643 27.161-6.428 6.266-15.678 9.397-27.75 9.397H355.59v-71.744h21.984c11.156 0 19.825 3.092 26.009 9.275 6.183 6.183 9.274 14.82 9.274 25.911zm-8.832.294c0-9.355-2.348-16.406-7.042-21.149s-11.671-7.116-20.929-7.116h-12.121v57.316h10.158c9.945 0 17.42-2.445 22.426-7.336 5.004-4.891 7.508-12.129 7.508-21.715zm24.83 36.264v-71.744h8.342v71.744h-8.342zm84.061 0h-9.52l-39.209-60.212h-.393c.523 7.066.785 13.544.785 19.433v40.779h-7.705v-71.744h9.422l39.111 59.967h.393c-.066-.883-.213-3.721-.441-8.514-.23-4.793-.313-8.22-.246-10.281v-41.172h7.803v71.744zm51.281-37.59h24.389v34.891c-3.795 1.211-7.656 2.127-11.582 2.748s-8.473.933-13.641.933c-10.863 0-19.318-3.23-25.371-9.691s-9.078-15.515-9.078-27.162c0-7.459 1.496-13.993 4.49-19.604 2.992-5.61 7.303-9.896 12.93-12.856s12.219-4.441 19.777-4.441c7.654 0 14.785 1.407 21.395 4.221l-3.238 7.36c-6.479-2.748-12.711-4.122-18.697-4.122-8.734 0-15.555 2.601-20.463 7.803-4.906 5.202-7.361 12.415-7.361 21.641 0 9.685 2.363 17.028 7.092 22.034 4.727 5.005 11.67 7.508 20.83 7.508 4.973 0 9.832-.572 14.576-1.718v-22.083h-16.047v-7.462z"/></svg>